<svg width="360" height="360" viewBox="0 0 360 360" fill="none" xmlns="http://www.w3.org/2000/svg">
<circle cx="180" cy="181" r="180" fill="white"/>
<path d="M264.671 60L97.2587 65.4545L98.5175 127.133H172.364L97.4732 271.153C96.5149 272.996 96.1542 275.091 96.4413 277.149L98.2909 290.404C98.441 291.48 98.7651 292.523 99.2507 293.494L99.4768 293.947C100.486 295.965 102.148 297.582 104.192 298.536L105.318 299.062C106.642 299.68 108.086 300 109.547 300H270.126L267.608 239.161H185.371L263.436 97.0743C264.246 95.5988 264.671 93.9425 264.671 92.259V60Z" fill="url(#paint0_linear_52_75)"/>
<defs>
<linearGradient id="paint0_linear_52_75" x1="154.741" y1="60.8392" x2="222.294" y2="304.196" gradientUnits="userSpaceOnUse">
<stop stop-color="#FA5245"/>
<stop offset="1" stop-color="#BF1E1F"/>
</linearGradient>
</defs>
</svg>
